<svg width="12" height="16" viewBox="0 0 12 16" fill="none" xmlns="http://www.w3.org/2000/svg">
<path fill-rule="evenodd" clip-rule="evenodd" d="M8.12669 16H3.90668C2.85694 16.0029 1.98365 15.1936 1.90667 14.1467L1.37334 6.68668C0.626948 6.67627 0.0213569 6.0795 0 5.33334V4.33334C0 3.41286 0.746194 2.66667 1.66667 2.66667H10.3334C11.2538 2.66667 12 3.41286 12 4.33334V5.00001C12 5.92049 11.2538 6.66668 10.3334 6.66668H4.66668C4.29849 6.66668 4.00001 6.3682 4.00001 6.00001C4.00001 5.63182 4.29849 5.33334 4.66668 5.33334H10.3334C10.5175 5.33334 10.6667 5.18411 10.6667 5.00001V4.33334C10.6667 4.14925 10.5175 4.00001 10.3334 4.00001H1.66667C1.48258 4.00001 1.33334 4.14925 1.33334 4.33334V5.33334C2.05542 5.34441 2.65182 5.90047 2.71334 6.62001L3.24668 14.0734C3.27122 14.4232 3.56263 14.6942 3.91334 14.6934H8.13336C8.47701 14.6951 8.76567 14.4353 8.80003 14.0934L9.34669 8.60002C9.38351 8.23183 9.71184 7.9632 10.08 8.00002C10.4482 8.03684 10.7169 8.36516 10.68 8.73335L10.1334 14.2267C10.0173 15.2445 9.15102 16.0101 8.12669 16ZM8.66669 0.666669C8.66669 0.298478 8.36821 0 8.00002 0H4.00001C3.63181 0 3.33334 0.298478 3.33334 0.666669C3.33334 1.03486 3.63181 1.33334 4.00001 1.33334H8.00002C8.36821 1.33334 8.66669 1.03486 8.66669 0.666669Z" fill="white"/>
</svg>
