<svg width="183" height="42" viewBox="0 0 183 42" fill="none" xmlns="http://www.w3.org/2000/svg">
<path d="M4.875 23.045V24.665L21.93 37.805C22.38 37.22 22.83 36.635 23.325 36.05L8.025 24.395L6.9 23.9L8.07 23.18L19.905 11.21L18.51 9.455L4.875 23.045ZM20.85 39.29L6.675 28.67L4.65 29.525L4.65 41H6.9L6.9 33.08L6.45 31.19L7.755 32.72L19.455 41.135L20.85 39.29ZM0.6 9.545L0.6 41H2.85L2.85 9.545H0.6ZM33.675 41L37.5 31.91H44.7L48.975 41.045C49.65 40.73 50.325 40.46 51.045 40.145L46.5 30.425C46.185 30.065 45.78 29.66 45.33 29.66L36.69 29.66C36.33 29.66 35.925 29.93 35.79 30.245L31.605 40.1L33.675 41ZM42.135 15.215L53.655 41.18C54.33 40.865 55.005 40.595 55.725 40.28L42 9.545L39.93 9.545L26.925 40.19L28.995 41.09L39.84 15.215L40.965 11.615L42.135 15.215ZM88.3377 41V27.365L86.3127 26.51L79.4727 39.74L81.3627 40.955C82.7577 38.39 83.7927 36.095 85.0527 33.62C85.3677 32.99 86.1777 30.11 86.5377 29.435L86.0877 33.665V41H88.3377ZM67.3227 41V33.665L66.8727 29.435C67.2327 30.11 68.0427 32.99 68.3577 33.62C69.6177 36.095 70.6527 38.39 72.0477 40.955L73.9377 39.74L67.0977 26.51L65.0727 27.365V41H67.3227ZM63.3627 41V18.05L63.0477 12.47L65.2077 17.915L75.7827 39.11L77.8527 39.11C81.3627 32.45 84.8727 24.845 88.3827 17.915L90.5877 12.605L90.2277 17.915V41H92.4777V9.905L90.3627 9.365L77.5377 34.7L76.7727 37.085L76.0527 34.79L63.3177 9.365L61.1127 9.905V41H63.3627ZM106.672 37.31V24.08C108.562 24.035 110.452 24.035 112.342 24.035V21.785L105.457 21.83L104.422 23.135V37.31H106.672ZM113.782 9.455L100.732 9.455L99.6967 10.76V39.695L100.732 41H115.312V38.75H101.947V11.705L113.782 11.705V9.455ZM136.184 38.705C132.404 38.705 128.579 38.66 124.799 38.66L124.754 11.75H127.184V35.6L128.219 36.545H136.229V34.295H129.434V10.625L128.219 9.5H123.539L122.504 10.805L122.549 39.965L123.584 40.91C127.769 40.91 131.999 40.955 136.184 40.955V38.705ZM141.621 0.499998V5.27L142.521 6.35H147.291L148.191 5.18V0.499998H146.121V4.1H143.691V0.499998H141.621ZM146.121 11.75V41H148.191V10.67L147.291 9.545L142.521 9.545L141.621 10.58V41H143.691V11.75L146.121 11.75ZM160.325 41L164.15 31.91L171.35 31.91L175.625 41.045C176.3 40.73 176.975 40.46 177.695 40.145L173.15 30.425C172.835 30.065 172.43 29.66 171.98 29.66L163.34 29.66C162.98 29.66 162.575 29.93 162.44 30.245L158.255 40.1L160.325 41ZM168.785 15.215L180.305 41.18C180.98 40.865 181.655 40.595 182.375 40.28L168.65 9.545H166.58L153.575 40.19L155.645 41.09L166.49 15.215L167.615 11.615L168.785 15.215Z" fill="white"/>
</svg>
