<svg width="25" height="25" viewBox="0 0 25 25" fill="none" xmlns="http://www.w3.org/2000/svg">
<path fill-rule="evenodd" clip-rule="evenodd" d="M6.67773 10.0194C5.57773 10.0194 4.67773 10.9194 4.67773 12.0194C4.67773 13.1194 5.57773 14.0194 6.67773 14.0194C7.77773 14.0194 8.67773 13.1194 8.67773 12.0194C8.67773 10.9194 7.77773 10.0194 6.67773 10.0194ZM18.6777 10.0194C17.5777 10.0194 16.6777 10.9194 16.6777 12.0194C16.6777 13.1194 17.5777 14.0194 18.6777 14.0194C19.7777 14.0194 20.6777 13.1194 20.6777 12.0194C20.6777 10.9194 19.7777 10.0194 18.6777 10.0194ZM12.6777 10.0194C11.5777 10.0194 10.6777 10.9194 10.6777 12.0194C10.6777 13.1194 11.5777 14.0194 12.6777 14.0194C13.7777 14.0194 14.6777 13.1194 14.6777 12.0194C14.6777 10.9194 13.7777 10.0194 12.6777 10.0194Z" fill="#5D6C76"/>
<mask id="mask0" mask-type="alpha" maskUnits="userSpaceOnUse" x="4" y="10" width="17" height="5">
<path fill-rule="evenodd" clip-rule="evenodd" d="M6.67773 10.0194C5.57773 10.0194 4.67773 10.9194 4.67773 12.0194C4.67773 13.1194 5.57773 14.0194 6.67773 14.0194C7.77773 14.0194 8.67773 13.1194 8.67773 12.0194C8.67773 10.9194 7.77773 10.0194 6.67773 10.0194ZM18.6777 10.0194C17.5777 10.0194 16.6777 10.9194 16.6777 12.0194C16.6777 13.1194 17.5777 14.0194 18.6777 14.0194C19.7777 14.0194 20.6777 13.1194 20.6777 12.0194C20.6777 10.9194 19.7777 10.0194 18.6777 10.0194ZM12.6777 10.0194C11.5777 10.0194 10.6777 10.9194 10.6777 12.0194C10.6777 13.1194 11.5777 14.0194 12.6777 14.0194C13.7777 14.0194 14.6777 13.1194 14.6777 12.0194C14.6777 10.9194 13.7777 10.0194 12.6777 10.0194Z" fill="white"/>
</mask>
<g mask="url(#mask0)">
</g>
</svg>
