<svg width="15" height="15" viewBox="0 0 15 15" fill="none" xmlns="http://www.w3.org/2000/svg">
<path fill-rule="evenodd" clip-rule="evenodd" d="M5.85309 7.55997H4.10072C3.77812 7.55997 3.5166 7.29845 3.5166 6.97585C3.5166 6.65324 3.77812 6.39172 4.10072 6.39172H5.85309C6.17569 6.39172 6.43721 6.65324 6.43721 6.97585C6.43721 7.29845 6.17569 7.55997 5.85309 7.55997ZM10.9403 12.8171C11.1135 12.7002 11.2112 12.4998 11.1966 12.2914C11.182 12.0829 11.0573 11.8981 10.8695 11.8065C10.6817 11.715 10.4593 11.7306 10.2861 11.8474C7.77921 13.5579 4.3847 13.0946 2.42799 10.7748C0.471274 8.45501 0.586802 5.03097 2.69543 2.84836C4.80405 0.665748 8.22207 0.432253 10.6079 2.30784C12.9938 4.18342 13.5739 7.55993 11.9508 10.1243C11.8392 10.3006 11.8301 10.5231 11.927 10.708C12.0238 10.8928 12.212 11.012 12.4205 11.0205C12.6291 11.029 12.8263 10.9256 12.938 10.7493C14.8539 7.71202 14.1645 3.71808 11.3413 1.49883C8.51809 -0.72042 4.47431 -0.447075 1.97545 2.13193C-0.523414 4.71093 -0.669018 8.76132 1.63821 11.5131C3.94545 14.2649 7.95916 14.8279 10.9344 12.8171H10.9403ZM10.5251 6.97585C10.5251 6.65324 10.2636 6.39172 9.94098 6.39172H8.18861C7.86601 6.39172 7.60449 6.65324 7.60449 6.97585C7.60449 7.29845 7.86601 7.55997 8.18861 7.55997H9.94098C10.2636 7.55997 10.5251 7.29845 10.5251 6.97585ZM7.60574 9.89648V8.14412C7.60574 7.82152 7.34422 7.56 7.02162 7.56C6.69902 7.56 6.4375 7.82152 6.4375 8.14412V9.89648C6.4375 10.2191 6.69902 10.4806 7.02162 10.4806C7.34422 10.4806 7.60574 10.2191 7.60574 9.89648ZM7.60574 5.80756V4.05519C7.60574 3.73259 7.34422 3.47107 7.02162 3.47107C6.69902 3.47107 6.4375 3.73259 6.4375 4.05519V5.80756C6.4375 6.13016 6.69902 6.39168 7.02162 6.39168C7.34422 6.39168 7.60574 6.13016 7.60574 5.80756Z" fill="white"/>
</svg>
