<svg width="23" height="16" viewBox="0 0 23 16" fill="none" xmlns="http://www.w3.org/2000/svg">
<path fill-rule="evenodd" clip-rule="evenodd" d="M20.9851 8.72124H1.47111C0.969836 8.72124 0.563477 8.31488 0.563477 7.81361C0.563477 7.31234 0.969836 6.90598 1.47111 6.90598H19.778L14.3322 2.14093C14.0874 1.92691 13.9754 1.59854 14.0383 1.27952C14.1012 0.960488 14.3296 0.699268 14.6373 0.594255C14.9451 0.489242 15.2855 0.55639 15.5303 0.770405L21.8837 6.3251C22.3129 6.69976 22.4635 7.30208 22.261 7.83464C22.0585 8.36719 21.5458 8.71733 20.9761 8.71216L20.9851 8.72124ZM15.5303 14.8568L19.1608 11.6801C19.5392 11.3493 19.5778 10.7743 19.247 10.3958C18.9162 10.0174 18.3412 9.97876 17.9627 10.3096L14.3322 13.4863C13.9537 13.8171 13.9151 14.3921 14.246 14.7706C14.5768 15.1491 15.1518 15.1877 15.5303 14.8568Z" fill="#F51E38"/>
</svg>
